# xmcd CD database file
#
# Track frame offsets:
#	150
#	15004
#	29032
#	41362
#	54265
#	69316
#	83294
#	98994
#	111953
#	128449
#	140515
#
# Disc length: 2057 seconds
#
# Revision: 0
# Processed by: cddbd v1.4PL0 Copyright (c) Steve Scherf et al.
# Submitted via: Feurio! 1.61 - http://www.feurio.com
#
DISCID=7b08070b
DTITLE=LOS IRACUNDOS - volumen III
DYEAR=1900
DGENRE=
TTITLE0=La lluvia que cae
TTITLE1=Y me quede' en el bar
TTITLE2=Y te has quedado sola
TTITLE3=Venite volando
TTITLE4=Chiquilina
TTITLE5=Soy un mamarracho
TTITLE6=El desengano
TTITLE7=Rio verde
TTITLE8=Qué tal mi amor
TTITLE9=Lluvia, dolor y llanto
TTITLE10=Marionetas de cartòn
EXTD=
EXTT0=
EXTT1=
EXTT2=
EXTT3=
EXTT4=
EXTT5=
EXTT6=
EXTT7=
EXTT8=
EXTT9=
EXTT10=
PLAYORDER=
